<svg xmlns="http://www.w3.org/2000/svg" width="253.689" height="47.603" viewBox="0 0 253.689 47.603"><defs><style>.a{fill:#222;}</style></defs><g transform="translate(-169.311 -20.521)"><path class="a" d="M244.74,49.813a4.6,4.6,0,0,0,1.511-2.783h6.418a10.122,10.122,0,0,1-3.368,6.65q-2.9,2.575-8.417,2.578a11.8,11.8,0,0,1-8.648-3.344,11.526,11.526,0,0,1-3.389-8.57,11.542,11.542,0,0,1,3.368-8.6,11.877,11.877,0,0,1,8.669-3.305q5.51,0,8.431,2.559a9.938,9.938,0,0,1,3.354,6.669h-6.418a4.829,4.829,0,0,0-1.606-2.751,5.244,5.244,0,0,0-3.578-1.117,5.175,5.175,0,0,0-4.04,1.781,6.794,6.794,0,0,0-1.552,4.767,7.077,7.077,0,0,0,1.607,4.767,5.12,5.12,0,0,0,4.019,1.78A5.3,5.3,0,0,0,244.74,49.813Z"></path><path class="a" d="M257.352,53a11.275,11.275,0,0,1-3.491-8.654,11.272,11.272,0,0,1,3.491-8.653,14.094,14.094,0,0,1,18.032,0,11.275,11.275,0,0,1,3.491,8.653A11.279,11.279,0,0,1,275.384,53a14.118,14.118,0,0,1-18.032,0Zm13.293-3.836a6.694,6.694,0,0,0,1.676-4.818,6.585,6.585,0,0,0-1.7-4.8,6.061,6.061,0,0,0-8.517,0,6.62,6.62,0,0,0-1.7,4.8,6.652,6.652,0,0,0,1.7,4.818,6.035,6.035,0,0,0,8.536,0Z"></path><path class="a" d="M300.46,35.61a11.263,11.263,0,0,1,3.428,8.7q0,5.594-3.415,8.77a12.8,12.8,0,0,1-9.075,3.18H281.257V32.436H291.4A12.818,12.818,0,0,1,300.46,35.61Zm-4.8,13.857a7.362,7.362,0,0,0,1.589-5.159A7.194,7.194,0,0,0,295.64,39.2a5.558,5.558,0,0,0-4.242-1.7h-3.571V51.178H291.4A5.5,5.5,0,0,0,295.66,49.467Z"></path><path class="a" d="M324.137,51.119v5.139H306.27V32.436h17.693v5.139h-11.24v4.238h9.68v4.963h-9.68v4.343Z"></path><path class="a" d="M342.411,49.813a4.6,4.6,0,0,0,1.512-2.783h6.419a10.132,10.132,0,0,1-3.369,6.65q-2.9,2.575-8.417,2.578a11.8,11.8,0,0,1-8.649-3.344,11.529,11.529,0,0,1-3.388-8.57,11.542,11.542,0,0,1,3.368-8.6,11.866,11.866,0,0,1,8.669-3.305q5.51,0,8.43,2.559a9.944,9.944,0,0,1,3.356,6.669h-6.419a4.829,4.829,0,0,0-1.606-2.751,5.264,5.264,0,0,0-3.585-1.117,5.17,5.17,0,0,0-4.039,1.781,6.78,6.78,0,0,0-1.552,4.767,7.076,7.076,0,0,0,1.605,4.767,5.123,5.123,0,0,0,4.019,1.78A5.334,5.334,0,0,0,342.411,49.813Z"></path><path class="a" d="M355.023,53a11.278,11.278,0,0,1-3.49-8.654,11.274,11.274,0,0,1,3.49-8.653,14.094,14.094,0,0,1,18.032,0,11.275,11.275,0,0,1,3.491,8.653A11.279,11.279,0,0,1,373.055,53a14.117,14.117,0,0,1-18.032,0Zm13.294-3.836a6.694,6.694,0,0,0,1.676-4.818,6.59,6.59,0,0,0-1.7-4.8,6.061,6.061,0,0,0-8.517,0,6.621,6.621,0,0,0-1.7,4.8,6.652,6.652,0,0,0,1.7,4.818,6.035,6.035,0,0,0,8.536,0Z"></path><path class="a" d="M381.229,53a11.279,11.279,0,0,1-3.492-8.654,11.276,11.276,0,0,1,3.492-8.653,14.091,14.091,0,0,1,18.03,0,11.276,11.276,0,0,1,3.492,8.653A11.279,11.279,0,0,1,399.259,53a14.115,14.115,0,0,1-18.03,0Zm13.291-3.836A6.7,6.7,0,0,0,396.2,44.35a6.581,6.581,0,0,0-1.7-4.8,6.064,6.064,0,0,0-8.519,0,6.617,6.617,0,0,0-1.7,4.8,6.648,6.648,0,0,0,1.7,4.818,6.039,6.039,0,0,0,8.539,0Z"></path><path class="a" d="M423,50.773v5.485H405.133V32.436h6.57V50.773Z"></path><path class="a" d="M203.153,30.826A10.569,10.569,0,0,1,208,31.953a7.833,7.833,0,0,1,1.964,1.407,61.642,61.642,0,0,1,4.884,5,9.385,9.385,0,0,1,2.047,6.647,9.624,9.624,0,0,1-2.169,5.392c-.192.232-.4.464-.619.686l-5.284,5.286a.081.081,0,0,1-.136-.083,10.942,10.942,0,0,0-2.864-10.513L194.89,34.841l1.481-1.481A9.581,9.581,0,0,1,203.153,30.826Z"></path><path class="a" d="M206.564,54.352a10.57,10.57,0,0,1-1.126,4.85,7.8,7.8,0,0,1-1.408,1.963,61.475,61.475,0,0,1-5,4.884,9.38,9.38,0,0,1-6.646,2.048,9.63,9.63,0,0,1-5.393-2.169c-.231-.193-.463-.4-.686-.619l-5.285-5.284a.081.081,0,0,1,.083-.136,10.943,10.943,0,0,0,10.513-2.864L202.55,46.09l1.48,1.481A9.576,9.576,0,0,1,206.564,54.352Z"></path><path class="a" d="M183.082,57.819a10.581,10.581,0,0,1-4.849-1.126,7.835,7.835,0,0,1-1.964-1.408,61.642,61.642,0,0,1-4.884-5,9.384,9.384,0,0,1-2.047-6.646,9.627,9.627,0,0,1,2.169-5.393c.192-.231.395-.464.619-.686l5.284-5.286a.082.082,0,0,1,.136.083,10.942,10.942,0,0,0,2.864,10.513l10.935,10.937-1.481,1.48A9.577,9.577,0,0,1,183.082,57.819Z"></path><path class="a" d="M179.671,34.293a10.569,10.569,0,0,1,1.126-4.849,7.811,7.811,0,0,1,1.408-1.964,61.641,61.641,0,0,1,5-4.884,9.379,9.379,0,0,1,6.646-2.047,9.615,9.615,0,0,1,5.393,2.169c.231.192.463.4.686.618l5.285,5.285a.081.081,0,0,1-.083.135,10.943,10.943,0,0,0-10.512,2.865L183.685,42.555l-1.48-1.48A9.579,9.579,0,0,1,179.671,34.293Z"></path></g></svg>