<svg xmlns="http://www.w3.org/2000/svg" xmlns:xlink="http://www.w3.org/1999/xlink" width="1920" height="1080" viewBox="0 0 1920 1080"><defs><clipPath id="clip-path"><path id="Path_67" data-name="Path 67" d="M0,0H1920V1080H0Z" transform="translate(0 5049.03)" fill="#f4f4f4"></path></clipPath></defs><g id="Mask_Group_10" data-name="Mask Group 10" transform="translate(0 -5049.03)" clip-path="url(#clip-path)"><g id="Group_177" data-name="Group 177" transform="translate(2046.071 4795.079) rotate(90)"><rect id="Rectangle_59" data-name="Rectangle 59" width="1920" height="1127.767" transform="translate(1361.325 126.071) rotate(90)" fill="#1d1a4f"></rect><path id="Path_67-2" data-name="Path 67" d="M1437.739,1000.169s-143.286,19.661-581.126,794.742c-130.3,230.661-191.827-25.939-370.691,153.659s-437.2-425.478-313.842-807.639S-177.555,515.615,75.885,388.573,254.17-128.037,600.578,42.467,1546.42,487.157,1437.739,1000.169Z" transform="translate(0)" fill="#0e46fb"></path><path id="Path_68" data-name="Path 68" d="M683.028,69.816s-36.647,69.005,112.756,457.869c44.461,115.725-68.168,79.372-57.23,204.113s-289.292,89.694-391.259-60.643-335.559.763-304.469-144.262S-91.491,318.509,76.815,205.964,528.733-106.528,683.028,69.816Z" transform="translate(616.772 38.063)" fill="#1d1a4f"></path><path id="Path_69" data-name="Path 69" d="M.119,179.546c-.857,55.1,3.184,106.2,3.309,125.006,1.008,152.6-.122,305.182-1.083,457.775-.052,8.2.064,16.984,4.711,23.751,4.007,5.835,10.705,9.141,17.172,12.04,43.145,19.334,98.423,45.129,146.929,33.666,90.137-21.3,70.156-174.468,74.092-243.1,6.177-107.708,7.955-215.453,7.06-323.314-.508-61.086,20.7-158.354-25.418-207.682-35.4-37.857-95.628-46.931-144.027-56.518C16.119-12.05,1.523,89.123.119,179.546Z" transform="translate(177.939 1383.002)" fill="#a460e1"></path><path id="Path_81" data-name="Path 81" d="M409.573,105.971C398.931,111.942-62.306,455.886,7.114,554.108s177.5-10.524,244.287-17.54S239.978,597.08,400.786,626.9s512.3,92.96,587.871-120.146S903.42,68.261,903.42,68.261,790.942-108.012,409.573,105.971Z" transform="translate(661.168 1416.826)" fill="#faf052"></path><g id="Group_176" data-name="Group 176" transform="matrix(0.485, 0.875, -0.875, 0.485, 1218.022, 124.131)"><path id="Path_82" data-name="Path 82" d="M19.757,1.175c.536-.331,4.992-.816,2.688-.853A12.967,12.967,0,0,0,16.84,1.5a13.516,13.516,0,0,0-5.07,3.38q-2.6,2.436,4.438-2.407a6.934,6.934,0,0,1-.973.187q2.008-.267,4.017-.537C14.05,2.7,9.019,3.56,5.207,7.669c-5.282,5.7-7.05,14.047-2.935,20.985a16.045,16.045,0,0,0,21.522,5.633c3.048-1.672,4.359-3.676,6.407-6.344q-1.266,1.632-2.532,3.269c4.7-4.355,7.619-11.252,6.763-17.625-.08-.594-.835-6.109-.194-.633-.152-1.289-.318-2.917-.619-4.294a13.232,13.232,0,0,0-3.205-6.114C27.938-.305,22.891-.76,19.757,1.175" transform="translate(-0.912 79.864)" fill="#faf052"></path><path id="Path_83" data-name="Path 83" d="M11.309,5.308c-.689,3.051-2.43,4.768-4.4,6.991C3.3,16.379-.092,20.954,0,26.667.115,33.416,7.255,40.283,14.356,37.58c6.9-2.625,10.727-8.366,11.866-15.551.87-5.508,1.5-11.374-.519-16.721-2.395-6.336-12.633-7.781-14.393,0" transform="translate(53.579 80.251)" fill="#faf052"></path><path id="Path_84" data-name="Path 84" d="M11.922,2.317C9.646,4.692,7.012,6.576,4.6,8.79c-6.5,5.954-6.486,17.546,2.419,21.3,8.088,3.408,15.816-2.738,17.452-10.617A91.346,91.346,0,0,0,26.233,8.233C26.824.909,16.714-2.676,11.922,2.317" transform="translate(1.19 139.797)" fill="#faf052"></path><path id="Path_85" data-name="Path 85" d="M8.761,5.535c-.473,1.6.953-1.314-.076.209-.146.214-1.114,1.8-.412.742s-.43.468-.622.673c-.484.518-1,1.014-1.528,1.486C3.194,11.261-.467,15.488.049,19.758c.5,4.166,2.639,8.238,7.1,9.309,12.834,3.07,18.9-13.5,16.6-23.532-1.767-7.682-12.893-7.071-14.984,0" transform="translate(4.559 189.861)" fill="#faf052"></path><path id="Path_86" data-name="Path 86" d="M8.53,5.6c-.321,1.326.816-1.016.2-.252a4.871,4.871,0,0,0-.6,1.01c-.379.933,1.221-1.313.113-.116-.368.4-.719.812-1.094,1.206-1.93,2.031-4.037,3.733-5.509,6.183A12.056,12.056,0,0,0,7.414,30.736a11.527,11.527,0,0,0,9.313,0c3.735-1.574,5.485-4.192,7-7.815,1.105-2.649,1.116-6.547,1.116-9.49a20.71,20.71,0,0,0-2.108-9.689C19.673-2.158,10.069-.737,8.53,5.6" transform="translate(32.279 202.949)" fill="#faf052"></path><path id="Path_87" data-name="Path 87" d="M9.693,6.784c-.293,1.489-.877.5.447-.742A5.719,5.719,0,0,0,9.5,7.285c-.262.472-.545.936-.84,1.391-.256.4-1.867,2.511-.4.689s-.168.155-.486.49a15.149,15.149,0,0,0-1.141,1.108c1.782-2.34,2.665-1.9,1.309-1.106a14.19,14.19,0,0,0-3.788,2.93C.2,17.5-1.689,24.411,1.925,30a14.7,14.7,0,0,0,16.081,6.529c8.787-2.272,12.142-11.036,11.9-19.228-.124-4.259-.708-9-2.84-12.786C23.261-2.241,11.284-1.362,9.693,6.784" transform="translate(78.921 179.597)" fill="#faf052"></path><path id="Path_88" data-name="Path 88" d="M5.151,7.274C4.6,9.265,6.015,6,5.407,6.882c-.288.416-.506.886-.79,1.306-.58.862-1.242,1.667-1.845,2.513A14.194,14.194,0,0,0,1.89,26.2c3.423,6.068,13.455,8.121,18.278,2.351a16.391,16.391,0,0,0,4.154-9.531c.063-.618.1-1.225.135-1.845.1-1.961-.347,2.4-.144.944.53-3.821.884-7.025-.039-10.842A10.011,10.011,0,0,0,14.714.007,10.2,10.2,0,0,0,5.151,7.274" transform="translate(31.228 154.273)" fill="#faf052"></path><path id="Path_89" data-name="Path 89" d="M9.2,4.072a29.909,29.909,0,0,1-.88,2.994q-.259.393-.514.784.468-.682-.183.1c-.432.487-.849.99-1.291,1.464-.321.353-.657.693-1.006,1.015q2.313-1.581.761-.742c-8.542,4.257-7.678,17.01,0,21.494,8.559,5,18.189-1.513,18.767-10.745.362-5.82-2.877-11.048-4.617-16.36s-9.4-5.552-11.038,0" transform="translate(82.725 100.3)" fill="#faf052"></path><path id="Path_90" data-name="Path 90" d="M15.482.938a23.879,23.879,0,0,0-5.317,3.547c-.473.381-1.518,1.643-2.087,1.735l1.045-.779c-.332.243-.67.481-1.01.713-2.36,1.672-4.662,3.3-6.254,5.77-2.406,3.724-2.512,9.513-.107,13.119,2.432,3.644,7.7,6.8,12.267,4.982a14.2,14.2,0,0,0,5.319-3.034q2.881-3.78,1.289-1.639-1.616,2.172,1.339-1.7a37.743,37.743,0,0,0,2.1-5.644c.4-1.186.7-2.381,1.016-3.591.19-.731.4-1.454.622-2.176.5-1.624-.539.9.408-.7A7.888,7.888,0,0,0,24.9,2.15C22.268-.471,18.685-.466,15.482.938" transform="translate(-29.487 66.569)" fill="#faf052"></path><path id="Path_91" data-name="Path 91" d="M17.14,2.382c2.3-2.006-1.18.793-1.644,1.145,2.16-1.643.15-.231-.363.044-1.258.67-2.523,1.308-3.763,2.017C4.8,9.351.346,15.045.012,22.875-.32,30.739,6.3,37.418,13.764,38.419c6.937.927,16.345-3.534,17.4-11.337q.323-2.418.652-4.836a4.225,4.225,0,0,1-.05-1.012q.065-1.8-.321,2.2.215-1.345.377-2.7c.17-1.247.354-2.5.484-3.755.205-1.95-.551,3.393-.058.632,1.155-6.482.97-12.617-5.2-16.5C23.828-.924,19.826.038,17.14,2.382" transform="translate(144.846 71.906)" fill="#faf052"></path><path id="Path_92" data-name="Path 92" d="M10.41,4.21a13.425,13.425,0,0,1-.836,1.639c-.183.3-.38.6-.584.881q-.645.907.466-.6c-.187.883-2.336,2.439-2.92,3.083a40.779,40.779,0,0,0-4.342,5.067A15.369,15.369,0,0,0,.005,22.491C-.16,26.775,3.49,32.346,8.037,33.017c4.967.733,9.269.37,13.154-3.187,2.673-2.446,4.117-5.689,5.213-9.071a25.659,25.659,0,0,0-.115-14.48A8.752,8.752,0,0,0,19.067.07c-3.088-.415-7.31,1.012-8.657,4.14" transform="translate(123.423 144.801)" fill="#faf052"></path><path id="Path_93" data-name="Path 93" d="M13,4.7c-1.745,4.249-5.515,7.579-8.274,11.17-5.41,7.04-6.891,15.552-.63,22.608,4.556,5.13,11.831,3.689,16.567,0,4.968-3.874,5.177-11.11,6.384-16.793A29.281,29.281,0,0,0,25.815,4.7C23.4-1.71,15.513-1.421,13,4.7" transform="translate(152.951 153.784)" fill="#faf052"></path><path id="Path_94" data-name="Path 94" d="M13.257,4.1c-.92,2.172.465-.055-.4,1-.408.5-1.826,1.475-.63.616A45.086,45.086,0,0,0,6.571,10.1C2.774,13.849-.577,20.228.084,25.667c.942,7.724,6.511,12.5,14.465,10.995,7.469-1.413,11.283-8.743,13.416-15.278,1.581-4.843,2.569-10.325.8-15.261C27.62,2.919,25.232.475,21.712.057,18.7-.3,14.57,1.01,13.257,4.1" transform="translate(109.982 196.874)" fill="#faf052"></path><path id="Path_95" data-name="Path 95" d="M15.932,2.075c-.784.8-1.265,1.8-1.959,2.631.735-.884-1.172.951-1.127.914-1.492,1.291-2.091,1.5-4.054,3.149C5.064,11.9,2.028,15.229.481,19.958c-2.1,6.4,2.957,13.026,9.259,13.872,6.03.808,13.3-4.13,12.618-10.919-.205-2.032-.882,1.071.037-.787-1.228,2.485,1.814-4.164,1.051-2.542-.591,1.255-.135.274.268-.381.48-.777,1-1.526,1.507-2.288,2.711-4.083,4.586-8.692,2.109-13.372-2.183-4.124-8.236-4.69-11.4-1.466" transform="translate(165.714 205.323)" fill="#faf052"></path><path id="Path_96" data-name="Path 96" d="M11.167,5.736c-.1.39-.39,1.28-.017.431-.035.083-1.342,1.961-.659,1.121.663-.814-.5.466-.634.588-.515.489-1.014.994-1.531,1.484a42.334,42.334,0,0,0-6.468,7.585c-2.414,3.734-2.538,9.674,0,13.4.128.185.256.37.382.557,3.57,5.232,11.477,8.755,17.342,4.537,5.07-3.645,6.655-7.025,6.987-13.058a11.107,11.107,0,0,1,.039-1.238q.2-1.956-.105.685c-.2-.6.356-2,.45-2.594.9-5.578.846-10.109-1.4-15.37C22.816-2.562,12.735-.3,11.167,5.736" transform="translate(198.006 219.834)" fill="#faf052"></path><path id="Path_97" data-name="Path 97" d="M13.273,2.7c-1.437,1.472-2.848,2.965-4.39,4.327-.8.705-2.593,1.643.476-.268-.43.268-.823.594-1.254.862a22.516,22.516,0,0,0-3.391,2.442,23.3,23.3,0,0,0-2.277,2.879q2.244-2.85,1.1-1.493c-3.4,3.97-4.951,9.936-1.9,14.665a12.6,12.6,0,0,0,13.7,5.561c9.336-2.153,11.855-11.7,13.828-19.745.969-3.943-.6-8.727-4.37-10.714A9.764,9.764,0,0,0,13.273,2.7" transform="translate(235.219 188.788)" fill="#faf052"></path><path id="Path_98" data-name="Path 98" d="M8.841,2.681a10.83,10.83,0,0,1-.855.76L10,1.891A17.787,17.787,0,0,1,7.61,3.256,17.576,17.576,0,0,0,1.862,8.762C-1.4,14.1-.416,21.4,5.156,24.735,10.608,28,17.189,25.842,21,21.257a14.927,14.927,0,0,0,3.438-6.95,19.44,19.44,0,0,0,.462-4.99C24.58,5.5,22.789,2.285,19.115.74A9.458,9.458,0,0,0,8.841,2.681" transform="translate(214.484 174.795)" fill="#faf052"></path><path id="Path_99" data-name="Path 99" d="M14.779,2.551C9.413,7.648,2.671,12.043.473,19.519c-3.063,10.416,9.4,20.623,18.871,14.475,5.235-3.4,6.777-7.531,8.018-13.235.689-3.173,1.841-6.224,2.624-9.374C32.177,2.54,21.406-3.749,14.779,2.551" transform="translate(114.028 55.468)" fill="#faf052"></path></g><g id="Group_475" data-name="Group 475" transform="translate(1189.096 643.154)"><path id="Path_1351" data-name="Path 1351" d="M102.519,582.67c-2.176-20.9-3.075-43,1.653-63.631,3.787-16.521,11.719-32.823,27.814-40.226,3.251-1.5,2.337-5.765,0-7.474-26-19.023-36.184-51.876-40.881-82.367-6.062-39.349-5.5-79.951-2.451-119.541,3.215-41.678,9.824-83,17.261-124.1,6.471-35.775,16.508-75.417-.881-109.727C97.617,20.966,85.435,8.346,69.706,2.907,49.155-4.2,27.334,3.029,8.045,10.589c-5.129,2.01-2.9,10.385,2.3,8.347,17.437-6.833,37.081-14,55.813-8.094C80.342,15.312,91.008,27,97.557,39.97c17.415,34.479,4.741,76.3-1.6,112.012C82.132,229.9,70.794,310.932,82.548,389.9c4.649,31.235,15.121,63.421,39.492,84.47-24.552,15.455-29.412,49.719-29.731,76.544-.49,41.137,9.412,81.493,19.151,121.173,17.242,70.245,37.813,157.66-13.681,219.032-22.4,26.7-56.7,45.8-92.35,39.341-5.448-.988-7.784,7.354-2.3,8.347,31.634,5.733,62.579-6.091,86.367-26.852,25.806-22.524,41.237-53.717,46.707-87.261C149.7,741.909,110.957,663.686,102.519,582.67Z" transform="translate(16.874 19.866)" fill="#1d1a4f"></path><path id="Path_1352" data-name="Path 1352" d="M70.388,526.478c-2.5-17.4-3.482-35.287,1.027-52.453,3.792-14.434,11.854-28.5,26.383-34.159,3.388-1.319,4.415-5.834,1.034-7.911-25.008-15.363-38.875-43.185-44.1-71.3C48.3,326.02,53.058,289.781,56.6,255.078q5.568-54.621,14.46-108.83,4.351-26.533,9.491-52.929,2.607-13.4,5.418-26.771c1.782-8.477,4.06-16.955,5.119-25.561C93.125,24.4,84.866,10.578,69.6,3.931,52.317-3.6,33.353,1.167,16.01,5.937c-5.365,1.475-3.088,9.829,2.3,8.347,15.474-4.255,33.27-9.384,48.654-2.092,5.828,2.762,11.129,7.082,13.9,13.022,3.538,7.577,1.646,16.277-.039,24.068-7.517,34.75-14.191,69.66-19.752,104.778q-8.232,52-13.483,104.416c-3.428,34.264-7.529,69.472-1.357,103.662,5.083,28.161,18.668,55.783,41.9,73C67.1,447.823,59.983,474.647,59.6,498.406c-.292,17.884,2.854,36.013,6.683,53.421,4.189,19.043,9.843,37.722,15.717,56.3,21.312,67.43,50.842,150.793,6.958,215.792-18.849,27.917-50.128,48.809-84.8,46.168-5.557-.423-5.529,8.236,0,8.657,30.541,2.326,59.4-12.526,79.759-34.6,22.821-24.752,33.875-56.592,35.767-89.891C124.2,674.778,81.458,603.523,70.388,526.478Z" transform="translate(11.576 52.902)" fill="#1d1a4f"></path><path id="Path_1353" data-name="Path 1353" d="M214.359,480.187c-16.9-4.371-34.18-9-49.2-18.179-16.655-10.172-26.272-25.58-30.326-44.5-4.426-20.653-4.654-42.628-4.868-63.67a595.352,595.352,0,0,1,3.182-67.819c4.627-44.335,16.612-87.264,23.06-131.286,3.107-21.213,4.844-42.726,2.964-64.139-1.653-18.833-5.5-38.484-15.006-55.061A61.132,61.132,0,0,0,124.5,14.224c-9.165-5.88-19.926-8.769-30.536-10.679A231.512,231.512,0,0,0,19.816,2.47c-5.493.79-3.157,9.133,2.3,8.347a218.756,218.756,0,0,1,67.755.763c9.947,1.7,20.061,4.014,28.817,9.227,7.91,4.709,13.921,11.8,18.381,19.766,9.761,17.441,13.075,38.6,13.992,58.3,1.011,21.688-1.364,43.372-4.979,64.73-7.252,42.852-18.076,84.825-22.175,128.2a595.253,595.253,0,0,0-2.537,66.876c.376,20.524.84,41.821,5.29,61.941,4.358,19.7,14.729,36.142,31.667,47.3,12.688,8.359,27.247,13.362,41.884,17.447a109.915,109.915,0,0,0-58.6,80.332c-3.639,22.77-1.331,45.817,2.3,68.433,3.929,24.5,9.079,48.794,13.713,73.166,8.737,45.957,15.939,92.77,11.305,139.633-4.094,41.406-17.85,83.759-46.678,114.68-29.3,31.433-73.654,51.341-116.841,42.109-5.433-1.162-7.755,7.182-2.3,8.347,37.742,8.068,76.46-4.1,106.543-27.338,32.556-25.152,52.624-62.3,62.039-101.885,10.453-43.959,8.345-89.447,1.853-133.817-3.659-25.006-8.68-49.785-13.5-74.586-4.617-23.749-9.7-47.692-11.235-71.885-1.6-25.108,1.448-50.588,14.837-72.368a100.885,100.885,0,0,1,50.715-41.662C218.159,487.139,218.773,481.329,214.359,480.187Z" transform="translate(0)" fill="#1d1a4f"></path><path id="Path_1354" data-name="Path 1354" d="M87.1,689.964a403.19,403.19,0,0,0-11.905-94.437c-7.638-30.9-20.542-60.422-25.6-91.961a221.048,221.048,0,0,1,8.68-104.01,4.426,4.426,0,0,0-1.989-4.888C37,380.978,35.447,353.644,34.423,332.165q-2.174-45.6-.372-91.276A1068.929,1068.929,0,0,1,57.338,58.82C60.352,44.762,63.382,28.573,55.8,15.37,49.736,4.8,37.444-2.739,25.17.948c-5.323,1.6-3.055,9.956,2.3,8.348C39.05,5.817,48.869,16.869,51.1,27.261c2.973,13.847-2.077,28.708-4.851,42.2q-8.974,43.646-14.233,87.945a1049.457,1049.457,0,0,0-6.085,178.1c1.179,23,4.442,49,23.14,64.437a229.337,229.337,0,0,0-10.25,84.963c2.154,31,12.216,59.63,21.347,89.059a403.175,403.175,0,0,1,17.3,91.046c1.992,28.218,2.407,58.4-8.576,85-10.635,25.76-35.422,47.907-64.74,45.3-5.549-.494-5.515,8.166,0,8.657,25.393,2.26,48.878-12.745,63.11-32.917C83.688,747.771,87.237,717.723,87.1,689.964Z" transform="translate(3.463 85.37)" fill="#1d1a4f"></path></g><g id="Group_476" data-name="Group 476" transform="translate(616.773 1689.002) rotate(180)"><path id="Path_1351-2" data-name="Path 1351" d="M102.519,582.67c-2.176-20.9-3.075-43,1.653-63.631,3.787-16.521,11.719-32.823,27.814-40.226,3.251-1.5,2.337-5.765,0-7.474-26-19.023-36.184-51.876-40.881-82.367-6.062-39.349-5.5-79.951-2.451-119.541,3.215-41.678,9.824-83,17.261-124.1,6.471-35.775,16.508-75.417-.881-109.727C97.617,20.966,85.435,8.346,69.706,2.907,49.155-4.2,27.334,3.029,8.045,10.589c-5.129,2.01-2.9,10.385,2.3,8.347,17.437-6.833,37.081-14,55.813-8.094C80.342,15.312,91.008,27,97.557,39.97c17.415,34.479,4.741,76.3-1.6,112.012C82.132,229.9,70.794,310.932,82.548,389.9c4.649,31.235,15.121,63.421,39.492,84.47-24.552,15.455-29.412,49.719-29.731,76.544-.49,41.137,9.412,81.493,19.151,121.173,17.242,70.245,37.813,157.66-13.681,219.032-22.4,26.7-56.7,45.8-92.35,39.341-5.448-.988-7.784,7.354-2.3,8.347,31.634,5.733,62.579-6.091,86.367-26.852,25.806-22.524,41.237-53.717,46.707-87.261C149.7,741.909,110.957,663.686,102.519,582.67Z" transform="translate(16.874 19.866)" fill="#1d1a4f"></path><path id="Path_1352-2" data-name="Path 1352" d="M70.388,526.478c-2.5-17.4-3.482-35.287,1.027-52.453,3.792-14.434,11.854-28.5,26.383-34.159,3.388-1.319,4.415-5.834,1.034-7.911-25.008-15.363-38.875-43.185-44.1-71.3C48.3,326.02,53.058,289.781,56.6,255.078q5.568-54.621,14.46-108.83,4.351-26.533,9.491-52.929,2.607-13.4,5.418-26.771c1.782-8.477,4.06-16.955,5.119-25.561C93.125,24.4,84.866,10.578,69.6,3.931,52.317-3.6,33.353,1.167,16.01,5.937c-5.365,1.475-3.088,9.829,2.3,8.347,15.474-4.255,33.27-9.384,48.654-2.092,5.828,2.762,11.129,7.082,13.9,13.022,3.538,7.577,1.646,16.277-.039,24.068-7.517,34.75-14.191,69.66-19.752,104.778q-8.232,52-13.483,104.416c-3.428,34.264-7.529,69.472-1.357,103.662,5.083,28.161,18.668,55.783,41.9,73C67.1,447.823,59.983,474.647,59.6,498.406c-.292,17.884,2.854,36.013,6.683,53.421,4.189,19.043,9.843,37.722,15.717,56.3,21.312,67.43,50.842,150.793,6.958,215.792-18.849,27.917-50.128,48.809-84.8,46.168-5.557-.423-5.529,8.236,0,8.657,30.541,2.326,59.4-12.526,79.759-34.6,22.821-24.752,33.875-56.592,35.767-89.891C124.2,674.778,81.458,603.523,70.388,526.478Z" transform="translate(11.576 52.902)" fill="#1d1a4f"></path><path id="Path_1353-2" data-name="Path 1353" d="M214.359,480.187c-16.9-4.371-34.18-9-49.2-18.179-16.655-10.172-26.272-25.58-30.326-44.5-4.426-20.653-4.654-42.628-4.868-63.67a595.352,595.352,0,0,1,3.182-67.819c4.627-44.335,16.612-87.264,23.06-131.286,3.107-21.213,4.844-42.726,2.964-64.139-1.653-18.833-5.5-38.484-15.006-55.061A61.132,61.132,0,0,0,124.5,14.224c-9.165-5.88-19.926-8.769-30.536-10.679A231.512,231.512,0,0,0,19.816,2.47c-5.493.79-3.157,9.133,2.3,8.347a218.756,218.756,0,0,1,67.755.763c9.947,1.7,20.061,4.014,28.817,9.227,7.91,4.709,13.921,11.8,18.381,19.766,9.761,17.441,13.075,38.6,13.992,58.3,1.011,21.688-1.364,43.372-4.979,64.73-7.252,42.852-18.076,84.825-22.175,128.2a595.253,595.253,0,0,0-2.537,66.876c.376,20.524.84,41.821,5.29,61.941,4.358,19.7,14.729,36.142,31.667,47.3,12.688,8.359,27.247,13.362,41.884,17.447a109.915,109.915,0,0,0-58.6,80.332c-3.639,22.77-1.331,45.817,2.3,68.433,3.929,24.5,9.079,48.794,13.713,73.166,8.737,45.957,15.939,92.77,11.305,139.633-4.094,41.406-17.85,83.759-46.678,114.68-29.3,31.433-73.654,51.341-116.841,42.109-5.433-1.162-7.755,7.182-2.3,8.347,37.742,8.068,76.46-4.1,106.543-27.338,32.556-25.152,52.624-62.3,62.039-101.885,10.453-43.959,8.345-89.447,1.853-133.817-3.659-25.006-8.68-49.785-13.5-74.586-4.617-23.749-9.7-47.692-11.235-71.885-1.6-25.108,1.448-50.588,14.837-72.368a100.885,100.885,0,0,1,50.715-41.662C218.159,487.139,218.773,481.329,214.359,480.187Z" transform="translate(0)" fill="#1d1a4f"></path><path id="Path_1354-2" data-name="Path 1354" d="M87.1,689.964a403.19,403.19,0,0,0-11.905-94.437c-7.638-30.9-20.542-60.422-25.6-91.961a221.048,221.048,0,0,1,8.68-104.01,4.426,4.426,0,0,0-1.989-4.888C37,380.978,35.447,353.644,34.423,332.165q-2.174-45.6-.372-91.276A1068.929,1068.929,0,0,1,57.338,58.82C60.352,44.762,63.382,28.573,55.8,15.37,49.736,4.8,37.444-2.739,25.17.948c-5.323,1.6-3.055,9.956,2.3,8.348C39.05,5.817,48.869,16.869,51.1,27.261c2.973,13.847-2.077,28.708-4.851,42.2q-8.974,43.646-14.233,87.945a1049.457,1049.457,0,0,0-6.085,178.1c1.179,23,4.442,49,23.14,64.437a229.337,229.337,0,0,0-10.25,84.963c2.154,31,12.216,59.63,21.347,89.059a403.175,403.175,0,0,1,17.3,91.046c1.992,28.218,2.407,58.4-8.576,85-10.635,25.76-35.422,47.907-64.74,45.3-5.549-.494-5.515,8.166,0,8.657,25.393,2.26,48.878-12.745,63.11-32.917C83.688,747.771,87.237,717.723,87.1,689.964Z" transform="translate(3.463 85.37)" fill="#1d1a4f"></path></g></g></g></svg>